<mxfile host="app.diagrams.net" agent="Mozilla/5.0 (X11; Linux x86_64) AppleWebKit/537.36 (KHTML, like Gecko) Chrome/130.0.0.0 Safari/537.36" version="26.0.10">
  <diagram name="Page-1" id="i4MGtxtUVRB47yjKicUv">
    <mxGraphModel dx="1195" dy="688" grid="1" gridSize="10" guides="1" tooltips="1" connect="1" arrows="1" fold="1" page="1" pageScale="1" pageWidth="850" pageHeight="1100" math="0" shadow="0">
      <root>
        <mxCell id="0" />
        <mxCell id="1" parent="0" />
        <mxCell id="nzH26Lg0xtcaVzGe_lwM-1" value="Config" style="ellipse;whiteSpace=wrap;html=1;" vertex="1" parent="1">
          <mxGeometry x="485" y="92" width="50" height="40" as="geometry" />
        </mxCell>
        <mxCell id="nzH26Lg0xtcaVzGe_lwM-6" value="" style="endArrow=classic;html=1;rounded=0;" edge="1" parent="1">
          <mxGeometry width="50" height="50" relative="1" as="geometry">
            <mxPoint x="425.71000000000004" y="134" as="sourcePoint" />
            <mxPoint x="425.71000000000004" y="194" as="targetPoint" />
          </mxGeometry>
        </mxCell>
        <mxCell id="nzH26Lg0xtcaVzGe_lwM-7" value="&lt;font style=&quot;font-size: 14px;&quot;&gt;File Indexing&lt;/font&gt;" style="rounded=1;whiteSpace=wrap;html=1;" vertex="1" parent="1">
          <mxGeometry x="408" y="200" width="120" height="60" as="geometry" />
        </mxCell>
        <mxCell id="nzH26Lg0xtcaVzGe_lwM-10" value="" style="endArrow=classic;html=1;rounded=0;" edge="1" parent="1">
          <mxGeometry width="50" height="50" relative="1" as="geometry">
            <mxPoint x="383" y="280" as="sourcePoint" />
            <mxPoint x="383" y="320" as="targetPoint" />
          </mxGeometry>
        </mxCell>
        <mxCell id="nzH26Lg0xtcaVzGe_lwM-11" value="" style="endArrow=classic;html=1;rounded=0;" edge="1" parent="1">
          <mxGeometry width="50" height="50" relative="1" as="geometry">
            <mxPoint x="433" y="281" as="sourcePoint" />
            <mxPoint x="433" y="321" as="targetPoint" />
          </mxGeometry>
        </mxCell>
        <mxCell id="nzH26Lg0xtcaVzGe_lwM-12" value="" style="endArrow=classic;html=1;rounded=0;" edge="1" parent="1">
          <mxGeometry width="50" height="50" relative="1" as="geometry">
            <mxPoint x="534" y="281" as="sourcePoint" />
            <mxPoint x="534" y="321" as="targetPoint" />
          </mxGeometry>
        </mxCell>
        <mxCell id="nzH26Lg0xtcaVzGe_lwM-15" value="" style="shape=waypoint;sketch=0;fillStyle=solid;size=6;pointerEvents=1;points=[];fillColor=none;resizable=0;rotatable=0;perimeter=centerPerimeter;snapToPoint=1;" vertex="1" parent="1">
          <mxGeometry x="450" y="280" width="20" height="20" as="geometry" />
        </mxCell>
        <mxCell id="nzH26Lg0xtcaVzGe_lwM-16" value="" style="shape=waypoint;sketch=0;fillStyle=solid;size=6;pointerEvents=1;points=[];fillColor=none;resizable=0;rotatable=0;perimeter=centerPerimeter;snapToPoint=1;" vertex="1" parent="1">
          <mxGeometry x="460" y="280" width="20" height="20" as="geometry" />
        </mxCell>
        <mxCell id="nzH26Lg0xtcaVzGe_lwM-17" value="" style="shape=waypoint;sketch=0;fillStyle=solid;size=6;pointerEvents=1;points=[];fillColor=none;resizable=0;rotatable=0;perimeter=centerPerimeter;snapToPoint=1;" vertex="1" parent="1">
          <mxGeometry x="470" y="280" width="20" height="20" as="geometry" />
        </mxCell>
        <mxCell id="nzH26Lg0xtcaVzGe_lwM-18" value="&lt;i&gt;For each group in parallel&lt;/i&gt;" style="text;html=1;align=center;verticalAlign=middle;resizable=0;points=[];autosize=1;strokeColor=none;fillColor=none;" vertex="1" parent="1">
          <mxGeometry x="550" y="275" width="160" height="30" as="geometry" />
        </mxCell>
        <mxCell id="nzH26Lg0xtcaVzGe_lwM-19" value="" style="rounded=0;whiteSpace=wrap;html=1;" vertex="1" parent="1">
          <mxGeometry x="335" y="330" width="250" height="490" as="geometry" />
        </mxCell>
        <mxCell id="nzH26Lg0xtcaVzGe_lwM-20" value="&lt;font style=&quot;font-size: 15px;&quot;&gt;Processing pipeline&lt;/font&gt;" style="text;html=1;align=center;verticalAlign=middle;resizable=0;points=[];autosize=1;strokeColor=none;fillColor=none;" vertex="1" parent="1">
          <mxGeometry x="170" y="540" width="150" height="30" as="geometry" />
        </mxCell>
        <mxCell id="nzH26Lg0xtcaVzGe_lwM-21" value="Parse documents" style="rounded=1;whiteSpace=wrap;html=1;" vertex="1" parent="1">
          <mxGeometry x="400" y="350" width="120" height="40" as="geometry" />
        </mxCell>
        <mxCell id="nzH26Lg0xtcaVzGe_lwM-22" value="" style="endArrow=classic;html=1;rounded=0;" edge="1" parent="1">
          <mxGeometry width="50" height="50" relative="1" as="geometry">
            <mxPoint x="457" y="391" as="sourcePoint" />
            <mxPoint x="457" y="431" as="targetPoint" />
          </mxGeometry>
        </mxCell>
        <mxCell id="nzH26Lg0xtcaVzGe_lwM-23" value="Extract content" style="rounded=1;whiteSpace=wrap;html=1;" vertex="1" parent="1">
          <mxGeometry x="400" y="510" width="120" height="40" as="geometry" />
        </mxCell>
        <mxCell id="nzH26Lg0xtcaVzGe_lwM-25" value="Root data directory" style="ellipse;whiteSpace=wrap;html=1;" vertex="1" parent="1">
          <mxGeometry x="380" y="90" width="90" height="40" as="geometry" />
        </mxCell>
        <mxCell id="nzH26Lg0xtcaVzGe_lwM-26" value="" style="endArrow=classic;html=1;rounded=0;" edge="1" parent="1">
          <mxGeometry width="50" height="50" relative="1" as="geometry">
            <mxPoint x="511.71000000000004" y="136" as="sourcePoint" />
            <mxPoint x="511.71000000000004" y="196" as="targetPoint" />
          </mxGeometry>
        </mxCell>
        <mxCell id="nzH26Lg0xtcaVzGe_lwM-27" value="Classify documents" style="rounded=1;whiteSpace=wrap;html=1;" vertex="1" parent="1">
          <mxGeometry x="400" y="430" width="120" height="40" as="geometry" />
        </mxCell>
        <mxCell id="nzH26Lg0xtcaVzGe_lwM-28" value="" style="endArrow=classic;html=1;rounded=0;" edge="1" parent="1">
          <mxGeometry width="50" height="50" relative="1" as="geometry">
            <mxPoint x="458" y="470" as="sourcePoint" />
            <mxPoint x="458" y="510" as="targetPoint" />
          </mxGeometry>
        </mxCell>
        <mxCell id="nzH26Lg0xtcaVzGe_lwM-29" value="" style="endArrow=classic;html=1;rounded=0;" edge="1" parent="1">
          <mxGeometry width="50" height="50" relative="1" as="geometry">
            <mxPoint x="457" y="550" as="sourcePoint" />
            <mxPoint x="457" y="590" as="targetPoint" />
          </mxGeometry>
        </mxCell>
        <mxCell id="nzH26Lg0xtcaVzGe_lwM-30" value="Embed chunks" style="rounded=1;whiteSpace=wrap;html=1;" vertex="1" parent="1">
          <mxGeometry x="400" y="669" width="120" height="40" as="geometry" />
        </mxCell>
        <mxCell id="nzH26Lg0xtcaVzGe_lwM-31" value="Split documents" style="rounded=1;whiteSpace=wrap;html=1;" vertex="1" parent="1">
          <mxGeometry x="400" y="589" width="120" height="40" as="geometry" />
        </mxCell>
        <mxCell id="nzH26Lg0xtcaVzGe_lwM-32" value="" style="endArrow=classic;html=1;rounded=0;" edge="1" parent="1">
          <mxGeometry width="50" height="50" relative="1" as="geometry">
            <mxPoint x="458" y="629" as="sourcePoint" />
            <mxPoint x="458" y="669" as="targetPoint" />
          </mxGeometry>
        </mxCell>
        <mxCell id="nzH26Lg0xtcaVzGe_lwM-35" value="Save to database" style="rounded=1;whiteSpace=wrap;html=1;" vertex="1" parent="1">
          <mxGeometry x="401" y="751" width="120" height="40" as="geometry" />
        </mxCell>
        <mxCell id="nzH26Lg0xtcaVzGe_lwM-36" value="" style="endArrow=classic;html=1;rounded=0;" edge="1" parent="1">
          <mxGeometry width="50" height="50" relative="1" as="geometry">
            <mxPoint x="459" y="711" as="sourcePoint" />
            <mxPoint x="459" y="751" as="targetPoint" />
          </mxGeometry>
        </mxCell>
      </root>
    </mxGraphModel>
  </diagram>
</mxfile>
